<svg width="1200" height="360" viewBox="0 0 1200 360" fill="none" xmlns="http://www.w3.org/2000/svg" role="img" aria-labelledby="title desc">
  <title id="title">OpenPitch logo option 1 - Signal Pitch</title>
  <desc id="desc">A geometric pitch-card mark with live signal bars and the OpenPitch wordmark.</desc>
  <rect width="1200" height="360" rx="0" fill="#F8FAFC"/>
  <g transform="translate(82 58)">
    <rect x="0" y="0" width="244" height="244" rx="52" fill="#0F1320"/>
    <path d="M61 158V93C61 84.7 67.7 78 76 78H168C176.3 78 183 84.7 183 93V158C183 166.3 176.3 173 168 173H76C67.7 173 61 166.3 61 158Z" fill="#171C2E" stroke="#7FD1C1" stroke-width="8"/>
    <path d="M81 106H151" stroke="#E8ECF5" stroke-width="10" stroke-linecap="round"/>
    <path d="M81 132H130" stroke="#9AA3B8" stroke-width="10" stroke-linecap="round"/>
    <path d="M81 158H115" stroke="#9AA3B8" stroke-width="10" stroke-linecap="round"/>
    <path d="M154 151L182 123L203 144" stroke="#E3B341" stroke-width="12" stroke-linecap="round" stroke-linejoin="round"/>
    <circle cx="61" cy="183" r="10" fill="#2E7D6F"/>
    <path d="M61 183C100 218 149 218 188 183" stroke="#2E7D6F" stroke-width="8" stroke-linecap="round"/>
  </g>
  <g transform="translate(380 102)">
    <text x="0" y="70" fill="#0F1320" font-family="Inter, ui-sans-serif, system-ui, -apple-system, BlinkMacSystemFont, Segoe UI, sans-serif" font-size="76" font-weight="760">OpenPitch</text>
    <text x="4" y="123" fill="#4B5563" font-family="Inter, ui-sans-serif, system-ui, -apple-system, BlinkMacSystemFont, Segoe UI, sans-serif" font-size="28" font-weight="500">fresh startup intelligence, with receipts</text>
    <path d="M8 151H370" stroke="#7FD1C1" stroke-width="7" stroke-linecap="round"/>
    <path d="M8 151H154" stroke="#E3B341" stroke-width="7" stroke-linecap="round"/>
  </g>
</svg>
