<svg width="1200" height="360" viewBox="0 0 1200 360" fill="none" xmlns="http://www.w3.org/2000/svg" role="img" aria-labelledby="title desc">
  <title id="title">OpenPitch logo option 2 - Receipt Node</title>
  <desc id="desc">A receipt and node graph logo showing sourced data and provenance.</desc>
  <rect width="1200" height="360" fill="#0F1320"/>
  <g transform="translate(88 54)">
    <rect x="0" y="0" width="252" height="252" rx="34" fill="#171C2E" stroke="#273047" stroke-width="2"/>
    <path d="M78 55H158C169 55 178 64 178 75V197L158 184L138 197L118 184L98 197L78 184L58 197V75C58 64 67 55 78 55Z" fill="#F8FAFC"/>
    <path d="M84 91H150" stroke="#0F1320" stroke-width="9" stroke-linecap="round"/>
    <path d="M84 119H134" stroke="#64748B" stroke-width="8" stroke-linecap="round"/>
    <path d="M84 148H145" stroke="#64748B" stroke-width="8" stroke-linecap="round"/>
    <circle cx="186" cy="76" r="16" fill="#7FD1C1"/>
    <circle cx="211" cy="126" r="16" fill="#E3B341"/>
    <circle cx="188" cy="176" r="16" fill="#2E7D6F"/>
    <path d="M193 90L204 112M204 140L194 162" stroke="#E8ECF5" stroke-width="7" stroke-linecap="round"/>
  </g>
  <g transform="translate(384 101)">
    <text x="0" y="70" fill="#FFFFFF" font-family="Inter, ui-sans-serif, system-ui, -apple-system, BlinkMacSystemFont, Segoe UI, sans-serif" font-size="76" font-weight="760">OpenPitch</text>
    <text x="3" y="124" fill="#9AA3B8" font-family="Inter, ui-sans-serif, system-ui, -apple-system, BlinkMacSystemFont, Segoe UI, sans-serif" font-size="28" font-weight="500">public-source metrics agents can verify</text>
    <g transform="translate(6 152)">
      <rect width="124" height="34" rx="17" fill="#213B3B"/>
      <text x="19" y="24" fill="#7FD1C1" font-family="Inter, ui-sans-serif, system-ui, sans-serif" font-size="18" font-weight="700">sourced</text>
      <rect x="142" width="138" height="34" rx="17" fill="#3E331A"/>
      <text x="162" y="24" fill="#E3B341" font-family="Inter, ui-sans-serif, system-ui, sans-serif" font-size="18" font-weight="700">confidence</text>
    </g>
  </g>
</svg>
