<svg width="1200" height="360" viewBox="0 0 1200 360" fill="none" xmlns="http://www.w3.org/2000/svg" role="img" aria-labelledby="title desc">
  <title id="title">OpenPitch logo option 3 - Agent Bridge</title>
  <desc id="desc">A monogram bridge mark for MCP and agent-to-agent connectivity.</desc>
  <rect width="1200" height="360" fill="#F8FAFC"/>
  <g transform="translate(82 52)">
    <rect width="256" height="256" rx="64" fill="#E8ECF5"/>
    <circle cx="90" cy="128" r="46" stroke="#0F1320" stroke-width="16"/>
    <path d="M130 82H166C199 82 226 109 226 142C226 175 199 202 166 202H130V82Z" stroke="#0F1320" stroke-width="16" stroke-linejoin="round"/>
    <path d="M129 128H180" stroke="#2E7D6F" stroke-width="16" stroke-linecap="round"/>
    <circle cx="55" cy="55" r="13" fill="#7FD1C1"/>
    <circle cx="201" cy="55" r="13" fill="#E3B341"/>
    <circle cx="55" cy="201" r="13" fill="#2E7D6F"/>
    <circle cx="201" cy="201" r="13" fill="#7FD1C1"/>
    <path d="M68 55H188M55 68V188M201 68V188M68 201H188" stroke="#CBD5E1" stroke-width="6" stroke-linecap="round"/>
  </g>
  <g transform="translate(384 101)">
    <text x="0" y="70" fill="#0F1320" font-family="Inter, ui-sans-serif, system-ui, -apple-system, BlinkMacSystemFont, Segoe UI, sans-serif" font-size="76" font-weight="780">OpenPitch</text>
    <text x="2" y="123" fill="#475569" font-family="Inter, ui-sans-serif, system-ui, -apple-system, BlinkMacSystemFont, Segoe UI, sans-serif" font-size="28" font-weight="500">the company-data bridge for AI agents</text>
    <text x="4" y="167" fill="#2E7D6F" font-family="JetBrains Mono, SFMono-Regular, Menlo, Consolas, monospace" font-size="22" font-weight="700">MCP-native · open data · zero key</text>
  </g>
</svg>
