<svg width="1200" height="360" viewBox="0 0 1200 360" fill="none" xmlns="http://www.w3.org/2000/svg" role="img" aria-labelledby="title desc">
  <title id="title">OpenPitch logo option 4 - Git Radar</title>
  <desc id="desc">A radar and git-history mark showing freshness, versioning, and auditability.</desc>
  <rect width="1200" height="360" fill="#111827"/>
  <g transform="translate(80 50)">
    <rect width="260" height="260" rx="40" fill="#0F1320" stroke="#263244" stroke-width="2"/>
    <circle cx="130" cy="130" r="82" stroke="#273047" stroke-width="6"/>
    <circle cx="130" cy="130" r="50" stroke="#273047" stroke-width="6"/>
    <path d="M130 130L194 80" stroke="#7FD1C1" stroke-width="10" stroke-linecap="round"/>
    <path d="M130 130L69 160" stroke="#E3B341" stroke-width="10" stroke-linecap="round"/>
    <circle cx="130" cy="130" r="13" fill="#F8FAFC"/>
    <circle cx="194" cy="80" r="12" fill="#7FD1C1"/>
    <circle cx="69" cy="160" r="12" fill="#E3B341"/>
    <path d="M77 210C100 229 159 229 183 210" stroke="#2E7D6F" stroke-width="8" stroke-linecap="round"/>
    <path d="M94 212V186M166 212V186" stroke="#2E7D6F" stroke-width="8" stroke-linecap="round"/>
  </g>
  <g transform="translate(386 101)">
    <text x="0" y="70" fill="#F8FAFC" font-family="Inter, ui-sans-serif, system-ui, -apple-system, BlinkMacSystemFont, Segoe UI, sans-serif" font-size="76" font-weight="760">OpenPitch</text>
    <text x="3" y="123" fill="#9AA3B8" font-family="Inter, ui-sans-serif, system-ui, -apple-system, BlinkMacSystemFont, Segoe UI, sans-serif" font-size="28" font-weight="500">fresh signals, versioned in public</text>
    <path d="M5 156H73C93 156 93 188 113 188H181" stroke="#7FD1C1" stroke-width="7" stroke-linecap="round"/>
    <circle cx="5" cy="156" r="8" fill="#7FD1C1"/>
    <circle cx="181" cy="188" r="8" fill="#E3B341"/>
  </g>
</svg>
