<svg width="1200" height="360" viewBox="0 0 1200 360" fill="none" xmlns="http://www.w3.org/2000/svg" role="img" aria-labelledby="title desc">
  <title id="title">OpenPitch logo option 5 - Terminal Proof</title>
  <desc id="desc">A terminal and verified trend mark for a developer-first AI agent tool.</desc>
  <rect width="1200" height="360" fill="#F8FAFC"/>
  <g transform="translate(78 56)">
    <rect x="0" y="0" width="268" height="248" rx="34" fill="#0F1320"/>
    <rect x="24" y="24" width="220" height="32" rx="16" fill="#171C2E"/>
    <circle cx="47" cy="40" r="6" fill="#E3B341"/>
    <circle cx="68" cy="40" r="6" fill="#7FD1C1"/>
    <circle cx="89" cy="40" r="6" fill="#2E7D6F"/>
    <path d="M51 104L75 124L51 144" stroke="#7FD1C1" stroke-width="12" stroke-linecap="round" stroke-linejoin="round"/>
    <path d="M100 145H157" stroke="#E8ECF5" stroke-width="12" stroke-linecap="round"/>
    <path d="M71 189L112 167L146 179L199 126" stroke="#E3B341" stroke-width="10" stroke-linecap="round" stroke-linejoin="round"/>
    <circle cx="199" cy="126" r="13" fill="#E3B341"/>
    <path d="M188 88L202 102L229 73" stroke="#7FD1C1" stroke-width="9" stroke-linecap="round" stroke-linejoin="round"/>
  </g>
  <g transform="translate(384 101)">
    <text x="0" y="70" fill="#0F1320" font-family="Inter, ui-sans-serif, system-ui, -apple-system, BlinkMacSystemFont, Segoe UI, sans-serif" font-size="76" font-weight="760">OpenPitch</text>
    <text x="3" y="123" fill="#475569" font-family="Inter, ui-sans-serif, system-ui, -apple-system, BlinkMacSystemFont, Segoe UI, sans-serif" font-size="28" font-weight="500">ask your agent, get sourced numbers</text>
    <rect x="4" y="149" width="330" height="38" rx="19" fill="#0F1320"/>
    <text x="24" y="174" fill="#7FD1C1" font-family="JetBrains Mono, SFMono-Regular, Menlo, Consolas, monospace" font-size="18" font-weight="700">$ openpitch get_provenance</text>
  </g>
</svg>
